<svg xmlns="http://www.w3.org/2000/svg" width="108" height="40" fill="none" viewBox="0 0 108 40">
    <g fill="#0A0909" clip-path="url(#a)">
        <path d="M28.502 4.621V.055H4.567V0H0v39.577h28.502v-4.562H4.567V4.621h23.935z"/>
        <path d="M22.643 24.045V11.3H11.658v4.567h6.418v8.18h-5.854v4.566h16.28v-4.567h-5.859zM37.386 11.993h7.85v2.036h-5.574v2.111h4.906v2.036h-4.906v2.186h5.65V22.4h-7.926V11.992zM47.347 11.993h2.291v8.32h5.19v2.08h-7.48v-10.4zM56.55 11.993h7.85v2.036h-5.574v2.111h4.906v2.036h-4.906v2.186h5.65V22.4H56.55V11.992zM66.048 17.223v-.03c0-2.96 2.23-5.38 5.425-5.38 1.961 0 3.134.654 4.102 1.607l-1.457 1.682c-.804-.729-1.622-1.173-2.66-1.173-1.752 0-3.02 1.457-3.02 3.24v.03c0 1.78 1.233 3.268 3.02 3.268 1.188 0 1.916-.474 2.735-1.218l1.457 1.473c-1.068 1.142-2.26 1.856-4.267 1.856-3.06-.005-5.335-2.366-5.335-5.355zM79.907 14.099h-3.164v-2.111h8.624v2.11h-3.164v8.295h-2.291V14.1h-.005zM87.114 11.993h4.756c1.322 0 2.35.37 3.034 1.053.58.579.894 1.397.894 2.38v.03c0 1.682-.909 2.735-2.231 3.224l2.54 3.718h-2.675l-2.23-3.328h-1.797v3.328h-2.291V11.993zm4.611 5.05c1.113 0 1.752-.593 1.752-1.472v-.03c0-.983-.684-1.487-1.797-1.487h-2.276v2.99h2.321zM101.432 11.918h2.111l4.462 10.48h-2.396l-.953-2.335h-4.402l-.953 2.335h-2.335l4.466-10.48zm2.406 6.123l-1.383-3.373-1.382 3.373h2.765zM36.927 30.648v-.03c0-2.96 2.335-5.38 5.544-5.38 3.21 0 5.515 2.396 5.515 5.35v.03c0 2.96-2.335 5.38-5.545 5.38-3.209 0-5.514-2.39-5.514-5.35zm8.664 0v-.03c0-1.781-1.308-3.269-3.15-3.269-1.841 0-3.119 1.458-3.119 3.24v.03c0 1.781 1.308 3.268 3.15 3.268 1.841 0 3.119-1.457 3.119-3.239zM50.022 25.413h2.111l4.876 6.408v-6.408h2.261v10.405h-1.946l-5.04-6.612v6.613h-2.262V25.413zM61.766 25.413h7.85v2.036h-5.575v2.111h4.906v2.036h-4.906v2.186h5.65v2.037h-7.925V25.413z"/>
    </g>
    <defs>
        <clipPath id="a">
            <path fill="#fff" d="M0 0h108v39.577H0z"/>
        </clipPath>
    </defs>
</svg>